<svg width="56" height="52" viewBox="0 0 56 52" fill="none" xmlns="http://www.w3.org/2000/svg">
<path d="M32.6667 21.45V17.7667C33.95 17.2611 35.2629 16.882 36.6053 16.6292C37.9478 16.3764 39.3571 16.25 40.8333 16.25C41.8445 16.25 42.8361 16.3222 43.8083 16.4667C44.7806 16.6111 45.7333 16.7917 46.6667 17.0084V20.475C45.7333 20.15 44.7899 19.9059 43.8363 19.7427C42.8828 19.5795 41.8818 19.4986 40.8333 19.5C39.3556 19.5 37.9361 19.6719 36.575 20.0157C35.2139 20.3595 33.9111 20.8376 32.6667 21.45ZM32.6667 33.3667V29.6834C33.95 29.1778 35.2629 28.7986 36.6053 28.5459C37.9478 28.2931 39.3571 28.1667 40.8333 28.1667C41.8445 28.1667 42.8361 28.2389 43.8083 28.3834C44.7806 28.5278 45.7333 28.7084 46.6667 28.925V32.3917C45.7333 32.0667 44.7899 31.8226 43.8363 31.6594C42.8828 31.4961 41.8818 31.4152 40.8333 31.4167C39.3556 31.4167 37.9361 31.5792 36.575 31.9042C35.2139 32.2292 33.9111 32.7167 32.6667 33.3667ZM32.6667 27.4084V23.725C33.95 23.2195 35.2629 22.8403 36.6053 22.5875C37.9478 22.3348 39.3571 22.2084 40.8333 22.2084C41.8445 22.2084 42.8361 22.2806 43.8083 22.425C44.7806 22.5695 45.7333 22.75 46.6667 22.9667V26.4334C45.7333 26.1084 44.7899 25.8643 43.8363 25.701C42.8828 25.5378 41.8818 25.4569 40.8333 25.4584C39.3556 25.4584 37.9361 25.6303 36.575 25.974C35.2139 26.3178 33.9111 26.7959 32.6667 27.4084ZM30.3333 36.9417C32.0445 36.1834 33.7649 35.6142 35.4947 35.2344C37.2245 34.8545 39.004 34.6652 40.8333 34.6667C42.2333 34.6667 43.6046 34.775 44.947 34.9917C46.2895 35.2084 47.6405 35.5334 49 35.9667V14.5167C47.7167 14.0111 46.3843 13.632 45.003 13.3792C43.6217 13.1264 42.2318 13 40.8333 13C39.0056 13 37.1972 13.2167 35.4083 13.65C33.6195 14.0834 31.9278 14.7334 30.3333 15.6V36.9417ZM28 43.3334C26.1333 41.9611 24.1111 40.8959 21.9333 40.1375C19.7556 39.3792 17.5 39 15.1667 39C13.5333 39 11.9288 39.1986 10.353 39.5959C8.77723 39.9931 7.27068 40.5528 5.83334 41.275C5.01668 41.6722 4.22957 41.6542 3.47201 41.2209C2.71445 40.7875 2.3349 40.1556 2.33334 39.325V13.2167C2.33334 12.8195 2.44068 12.4403 2.65534 12.0792C2.87001 11.7181 3.19045 11.4472 3.61668 11.2667C5.44445 10.4361 7.32123 9.7948 9.24701 9.34269C11.1728 8.89058 13.146 8.66525 15.1667 8.66669C17.4222 8.66669 19.6296 8.93753 21.7887 9.47919C23.9478 10.0209 26.0182 10.8334 28 11.9167C29.9833 10.8334 32.0546 10.0209 34.2137 9.47919C36.3728 8.93753 38.5793 8.66669 40.8333 8.66669C42.8556 8.66669 44.8296 8.89275 46.7553 9.34486C48.6811 9.79697 50.5571 10.4376 52.3833 11.2667C52.8111 11.4472 53.1323 11.7181 53.347 12.0792C53.5617 12.4403 53.6682 12.8195 53.6667 13.2167V39.325C53.6667 40.1556 53.2879 40.7875 52.5303 41.2209C51.7728 41.6542 50.9849 41.6722 50.1667 41.275C48.7278 40.5528 47.2212 39.9931 45.647 39.5959C44.0728 39.1986 42.4682 39 40.8333 39C38.5 39 36.2445 39.3792 34.0667 40.1375C31.8889 40.8959 29.8667 41.9611 28 43.3334Z" fill="#B900B9"/>
</svg>
