<svg width="90" height="90" viewBox="0 0 90 90" fill="none" xmlns="http://www.w3.org/2000/svg">
<g clip-path="url(#clip0_19_271)">
<path d="M68.9062 0H21.0938C9.44399 0 0 9.44399 0 21.0938V68.9062C0 80.556 9.44399 90 21.0938 90H68.9062C80.556 90 90 80.556 90 68.9062V21.0938C90 9.44399 80.556 0 68.9062 0Z" fill="url(#paint0_linear_19_271)"/>
<g filter="url(#filter0_d_19_271)">
<path d="M46.3957 68.9614C56.8287 68.9614 63.1157 63.8529 63.1157 55.4273C63.1157 49.0581 58.6301 44.4473 51.969 43.7171V43.4521C56.8628 42.6558 60.7029 38.1111 60.7029 33.036C60.7029 25.8043 54.9939 21.0938 46.2937 21.0938H26.7188V68.9614H46.3957ZM34.3311 27.1642H44.4586C49.9641 27.1642 53.0905 29.6191 53.0905 34.0643C53.0905 38.8079 49.4543 41.4615 42.8614 41.4615H34.3311V27.1642ZM34.3311 62.891V47.1343H44.3904C51.5953 47.1343 55.3335 49.7879 55.3335 54.9629C55.3335 60.1376 51.6973 62.891 44.8323 62.891H34.3311Z" fill="url(#paint1_linear_19_271)"/>
<path d="M46.3957 68.9614C56.8287 68.9614 63.1157 63.8529 63.1157 55.4273C63.1157 49.0581 58.6301 44.4473 51.969 43.7171V43.4521C56.8628 42.6558 60.7029 38.1111 60.7029 33.036C60.7029 25.8043 54.9939 21.0938 46.2937 21.0938H26.7188V68.9614H46.3957ZM34.3311 27.1642H44.4586C49.9641 27.1642 53.0905 29.6191 53.0905 34.0643C53.0905 38.8079 49.4543 41.4615 42.8614 41.4615H34.3311V27.1642ZM34.3311 62.891V47.1343H44.3904C51.5953 47.1343 55.3335 49.7879 55.3335 54.9629C55.3335 60.1376 51.6973 62.891 44.8323 62.891H34.3311Z" stroke="white" stroke-width="0.703125"/>
</g>
</g>
<defs>
<filter id="filter0_d_19_271" x="20.7422" y="16.5234" width="48.35" height="59.8208" filterUnits="userSpaceOnUse" color-interpolation-filters="sRGB">
<feFlood flood-opacity="0" result="BackgroundImageFix"/>
<feColorMatrix in="SourceAlpha" type="matrix" values="0 0 0 0 0 0 0 0 0 0 0 0 0 0 0 0 0 0 127 0" result="hardAlpha"/>
<feOffset dy="1.40625"/>
<feGaussianBlur stdDeviation="2.8125"/>
<feColorMatrix type="matrix" values="0 0 0 0 0 0 0 0 0 0 0 0 0 0 0 0 0 0 0.15 0"/>
<feBlend mode="normal" in2="BackgroundImageFix" result="effect1_dropShadow_19_271"/>
<feBlend mode="normal" in="SourceGraphic" in2="effect1_dropShadow_19_271" result="shape"/>
</filter>
<linearGradient id="paint0_linear_19_271" x1="0" y1="0" x2="90" y2="90" gradientUnits="userSpaceOnUse">
<stop stop-color="#9013FE"/>
<stop offset="1" stop-color="#6B11F4"/>
</linearGradient>
<linearGradient id="paint1_linear_19_271" x1="30.1616" y1="24.2445" x2="52.2214" y2="61.553" gradientUnits="userSpaceOnUse">
<stop stop-color="white"/>
<stop offset="1" stop-color="#F1E5FC"/>
</linearGradient>
<clipPath id="clip0_19_271">
<rect width="90" height="90" fill="white"/>
</clipPath>
</defs>
</svg>
