<svg width="51" height="58" viewBox="0 0 51 58" fill="none" xmlns="http://www.w3.org/2000/svg">
<path d="M13.515 20.9819L5.05418 29L13.515 37.018C13.637 37.1318 13.7381 37.2719 13.8122 37.4302C13.8864 37.5886 13.9323 37.7621 13.9473 37.9407C13.9622 38.1193 13.9459 38.2995 13.8993 38.4709C13.8527 38.6424 13.7767 38.8016 13.6758 38.9395C13.5748 39.0773 13.4508 39.1911 13.311 39.2742C13.1711 39.3573 13.0182 39.4081 12.8611 39.4237C12.7039 39.4393 12.5455 39.4193 12.3952 39.3649C12.2448 39.3106 12.1054 39.2229 11.985 39.1069L2.4225 30.0444C2.28784 29.9169 2.1795 29.7572 2.10514 29.5767C2.03079 29.3962 1.99225 29.1993 1.99225 29C1.99225 28.8007 2.03079 28.6038 2.10514 28.4233C2.1795 28.2428 2.28784 28.0831 2.4225 27.9555L11.985 18.893C12.2289 18.6657 12.5419 18.5572 12.8559 18.5912C13.1698 18.6252 13.4592 18.7988 13.6611 19.0744C13.8629 19.35 13.9608 19.7051 13.9335 20.0624C13.9061 20.4197 13.7557 20.7502 13.515 20.9819ZM48.5775 27.9555L39.015 18.893C38.8946 18.7771 38.7552 18.6894 38.6048 18.6351C38.4545 18.5807 38.2961 18.5607 38.1389 18.5763C37.9818 18.5919 37.8288 18.6427 37.689 18.7258C37.5492 18.8089 37.4252 18.9226 37.3242 19.0605C37.2232 19.1984 37.1473 19.3576 37.1007 19.529C37.0541 19.7005 37.0378 19.8807 37.0527 20.0593C37.0677 20.2379 37.1136 20.4114 37.1878 20.5698C37.2619 20.7281 37.363 20.8682 37.485 20.9819L45.9458 29L37.485 37.018C37.363 37.1318 37.2619 37.2719 37.1878 37.4302C37.1136 37.5886 37.0677 37.7621 37.0527 37.9407C37.0378 38.1193 37.0541 38.2995 37.1007 38.4709C37.1473 38.6424 37.2232 38.8016 37.3242 38.9395C37.4252 39.0773 37.5492 39.1911 37.689 39.2742C37.8288 39.3573 37.9818 39.4081 38.1389 39.4237C38.2961 39.4393 38.4545 39.4193 38.6048 39.3649C38.7552 39.3106 38.8946 39.2229 39.015 39.1069L48.5775 30.0444C48.7122 29.9169 48.8205 29.7572 48.8949 29.5767C48.9692 29.3962 49.0077 29.1993 49.0077 29C49.0077 28.8007 48.9692 28.6038 48.8949 28.4233C48.8205 28.2428 48.7122 28.0831 48.5775 27.9555ZM32.2834 7.79147C32.1356 7.73056 31.9787 7.70341 31.8216 7.71156C31.6646 7.71971 31.5105 7.76301 31.3682 7.83899C31.2259 7.91496 31.0982 8.02211 30.9923 8.15431C30.8865 8.2865 30.8046 8.44114 30.7514 8.60936L18.0014 48.4844C17.8966 48.8233 17.9141 49.1956 18.0499 49.52C18.1858 49.8443 18.4291 50.0943 18.7266 50.2153C18.8545 50.2674 18.9891 50.295 19.125 50.2969C19.3704 50.2969 19.6099 50.2111 19.8109 50.0509C20.0119 49.8908 20.1647 49.6643 20.2486 49.4019L32.9986 9.52694C33.0523 9.35914 33.0763 9.18096 33.0694 9.00258C33.0625 8.8242 33.0248 8.64911 32.9584 8.48732C32.8919 8.32553 32.7981 8.1802 32.6823 8.05964C32.5665 7.93908 32.431 7.84564 32.2834 7.78468V7.79147Z" fill="#B900B9"/>
</svg>
