<svg width="100" height="107" viewBox="0 0 100 107" fill="none" xmlns="http://www.w3.org/2000/svg">
<g clip-path="url(#clip0_2_187)">
<path d="M18.8728 90.2764L11.9347 6.91675H88.1705L81.2231 90.2632L50.0063 99.5349L18.8728 90.2764Z" fill="#E44F26"/>
<path d="M50.0526 92.4497L75.2793 84.9575L81.2139 13.7341H50.0526V92.4497Z" fill="#F1662A"/>
<path d="M18.8728 90.2764L11.9378 6.91675H88.1674L81.2231 90.2632L50.0063 99.5349L18.8728 90.2764Z" fill="#1572B6"/>
<path d="M50.0526 92.4497L75.2793 84.9575L81.2139 13.7341H50.0526V92.4497Z" fill="#33A9DC"/>
<path d="M50.0526 43.9343H62.6814L63.5521 33.4651H50.0526V23.2407H73.9825L73.754 25.9829L71.4104 54.1587H50.0526V43.9343Z" fill="white"/>
<path d="M50.1113 70.486L50.0681 70.4992L39.4401 67.423L38.7608 59.2693H29.1796L30.5166 75.322L50.065 81.1371L50.1113 81.1239V70.486Z" fill="#EBEBEB"/>
<path d="M61.8693 53.7253L60.7207 67.4163L50.0773 70.4925V81.1304L69.6411 75.3219L69.7862 73.5953L71.4443 53.7253H61.8693Z" fill="white"/>
<path d="M50.0866 23.2407V33.4651H27.0337L26.8422 31.1662L26.4069 25.9829L26.1784 23.2407H50.0866ZM50.0526 43.9343V54.1587H39.5575L39.366 51.8598L38.9338 46.6764L38.7053 43.9343H50.0526Z" fill="#EBEBEB"/>
</g>
<defs>
<clipPath id="clip0_2_187">
<rect width="98.807" height="105.849" fill="white" transform="translate(0.649124 0.30127)"/>
</clipPath>
</defs>
</svg>
