<svg width="138" height="106" viewBox="0 0 138 106" fill="none" xmlns="http://www.w3.org/2000/svg">
<path d="M26.6683 46.6502L52.6978 20.5757L60.3085 28.2314C59.2277 32.0593 60.984 36.2474 64.4966 38.274V63.2227C61.7946 64.7538 59.9932 67.681 59.9932 71.0135C59.9932 73.4023 60.9422 75.6932 62.6313 77.3822C64.3204 79.0713 66.6113 80.0203 69 80.0203C71.3887 80.0203 73.6796 79.0713 75.3687 77.3822C77.0578 75.6932 78.0068 73.4023 78.0068 71.0135C78.0068 67.681 76.2054 64.7538 73.5034 63.2227V41.3363L82.8254 50.7483C82.5101 51.4238 82.5101 52.1894 82.5101 53C82.5101 55.3887 83.4591 57.6796 85.1482 59.3687C86.8372 61.0578 89.1281 62.0068 91.5169 62.0068C93.9056 62.0068 96.1965 61.0578 97.8856 59.3687C99.5747 57.6796 100.524 55.3887 100.524 53C100.524 50.6113 99.5747 48.3204 97.8856 46.6313C96.1965 44.9422 93.9056 43.9932 91.5169 43.9932C90.7063 43.9932 89.9407 43.9932 89.2652 44.3085L77.6915 32.7348C78.2507 30.649 78.0339 28.4311 77.0814 26.4931C76.129 24.555 74.5056 23.0285 72.5126 22.1969C70.5762 21.4764 68.5497 21.2962 66.7483 21.7916L59.0926 14.1809L62.6502 10.6683C66.1629 7.11058 71.8371 7.11058 75.3498 10.6683L111.332 46.6502C114.889 50.1629 114.889 55.8371 111.332 59.3498L75.3498 95.3317C71.8371 98.8894 66.1629 98.8894 62.6502 95.3317L26.6683 59.3498C23.1106 55.8371 23.1106 50.1629 26.6683 46.6502Z" fill="#F24E1E"/>
</svg>
