<svg width="35" height="35" viewBox="0 0 35 35" fill="none" xmlns="http://www.w3.org/2000/svg">
<g clip-path="url(#clip0_1_29)">
<path fill-rule="evenodd" clip-rule="evenodd" d="M17.5 2.91667C9.44563 2.91667 2.91667 9.44563 2.91667 17.5C2.91667 25.5544 9.44563 32.0833 17.5 32.0833C25.5544 32.0833 32.0833 25.5544 32.0833 17.5C32.0833 9.44563 25.5544 2.91667 17.5 2.91667ZM0 17.5C0 7.8349 7.8349 0 17.5 0C27.1651 0 35 7.8349 35 17.5C35 27.1651 27.1651 35 17.5 35C7.8349 35 0 27.1651 0 17.5Z" fill="#B900B9"/>
<path fill-rule="evenodd" clip-rule="evenodd" d="M13.9876 33.1567C13.8469 32.9744 13.8469 31.352 13.9876 28.2902C12.4768 28.3427 11.523 28.2377 11.1242 27.9759C10.527 27.5829 9.92834 26.3718 9.39824 25.5179C8.8674 24.6648 7.6898 24.5292 7.21438 24.3381C6.73896 24.1478 6.61938 23.3698 8.52469 23.9575C10.43 24.5459 10.5226 26.1487 11.1242 26.5227C11.7257 26.8975 13.1629 26.7342 13.8141 26.4338C14.4652 26.1333 14.4171 25.0163 14.5338 24.5737C14.6803 24.1602 14.1626 24.0683 14.1517 24.0654C13.5151 24.0654 10.1748 23.3384 9.25678 20.1039C8.33949 16.8685 9.52147 14.754 10.1522 13.8447C10.5722 13.2395 10.535 11.9474 10.0406 9.97063C11.8366 9.74094 13.2234 10.306 14.1991 11.6667C14.2005 11.674 15.4795 10.9062 17.5 10.9062C19.5213 10.9062 20.238 11.5318 20.7915 11.6667C21.3456 11.8016 21.7875 9.28521 25.2051 9.97063C24.4913 11.3728 23.8941 13.125 24.3498 13.8454C24.8063 14.5651 26.5956 16.8547 25.4968 20.1039C24.7632 22.2695 23.3224 23.59 21.1735 24.0654C20.9278 24.1442 20.8046 24.271 20.8046 24.446C20.8046 24.7085 21.1371 24.737 21.6169 25.9671C21.9377 26.7867 21.9603 29.1288 21.6869 32.9926C20.9934 33.1691 20.4539 33.2879 20.0681 33.3484C19.3849 33.4556 18.6426 33.5161 17.9134 33.5388C17.1843 33.5621 16.9313 33.5599 15.9228 33.4658C15.2715 33.4067 14.6249 33.3034 13.9876 33.1567Z" fill="#B900B9"/>
</g>
<defs>
<clipPath id="clip0_1_29">
<rect width="35" height="35" fill="white"/>
</clipPath>
</defs>
</svg>
