<svg width="100" height="107" viewBox="0 0 100 107" fill="none" xmlns="http://www.w3.org/2000/svg">
<path d="M19.0658 90.2764L12.1277 6.91675H88.3635L81.4161 90.2632L50.1993 99.5349L19.0658 90.2764Z" fill="#E44F26"/>
<path d="M50.2456 92.4497L75.4723 84.9575L81.4069 13.7341H50.2456V92.4497Z" fill="#F1662A"/>
<path d="M50.2456 44.6489H37.6168L36.7461 34.1797H50.2456V23.9553H26.3158L26.5443 26.7008L28.8879 54.8733H50.2456V44.6489ZM50.2456 71.2005L50.2024 71.2138L39.5745 68.1408L38.8952 59.9871H29.314L30.651 76.0365L50.2024 81.8516L50.2456 81.8384V71.2005Z" fill="#EBEBEB"/>
<path d="M50.2116 44.6489V54.8733H61.9635L60.8581 68.1342L50.2116 71.2105V81.8483L69.7785 76.0365L69.9205 74.3099L72.1622 47.3943L72.3969 44.6489H50.2116ZM50.2116 23.9553V34.1797H73.2645L73.456 31.8841L73.8914 26.7008L74.1198 23.9553H50.2116Z" fill="white"/>
</svg>
