<svg width="90" height="96" viewBox="0 0 90 96" fill="none" xmlns="http://www.w3.org/2000/svg">
<g clip-path="url(#clip0_2_210)">
<path d="M0.777771 0.953857H89.2924V95.1714H0.777771V0.953857Z" fill="#F7DF1E"/>
<path d="M24.0516 79.6887L30.825 75.3253C32.132 77.7915 33.3207 79.8783 36.1722 79.8783C38.9054 79.8783 40.6291 78.7403 40.6291 74.3135V44.2088H48.947V74.4387C48.947 83.6091 43.8968 87.7833 36.5287 87.7833C29.8745 87.7833 26.012 84.1151 24.0512 79.688M53.4651 78.7399L60.2378 74.566C62.0209 77.6653 64.3382 79.9419 68.4375 79.9419C71.8844 79.9419 74.0821 78.1076 74.0821 75.5777C74.0821 72.5422 71.8242 71.4668 68.0216 69.6965L65.9425 68.747C59.9412 66.0283 55.9604 62.6129 55.9604 55.403C55.9604 48.7622 60.7136 43.7024 68.1409 43.7024C73.4289 43.7024 77.2316 45.6633 79.9645 50.786L73.4877 55.2135C72.0614 52.4941 70.5173 51.419 68.1405 51.419C65.7043 51.419 64.1594 53.0634 64.1594 55.2135C64.1594 57.8696 65.7043 58.9454 69.2691 60.5898L71.3485 61.5382C78.4193 64.7641 82.4 68.0525 82.4 75.4515C82.4 83.421 76.5179 87.7844 68.6156 87.7844C60.8916 87.7844 55.9006 83.8634 53.4647 78.7403" fill="black"/>
</g>
<defs>
<clipPath id="clip0_2_210">
<rect width="88.5146" height="94.2176" fill="white" transform="translate(0.777771 0.953857)"/>
</clipPath>
</defs>
</svg>
