<svg width="39" height="39" viewBox="0 0 39 39" fill="none" xmlns="http://www.w3.org/2000/svg">
<path d="M27.625 21.3362V27.3439H24.1426V21.7376C24.1426 20.3304 23.6389 19.37 22.3779 19.37C21.4159 19.37 20.8423 20.0167 20.5904 20.644C20.4994 20.8682 20.475 21.1802 20.475 21.4922V27.3439H16.991C16.991 27.3439 17.0381 17.8506 16.991 16.8675H20.475V18.3511L20.4523 18.3852H20.475V18.3511C20.9381 17.6361 21.7636 16.6205 23.6145 16.6205C25.9058 16.6205 27.625 18.1187 27.625 21.3362ZM13.3461 11.8154C12.155 11.8154 11.375 12.5986 11.375 13.6256C11.375 14.6331 12.1323 15.4375 13.3006 15.4375H13.3234C14.5389 15.4375 15.2945 14.6315 15.2945 13.6256C15.2718 12.5986 14.5389 11.8154 13.3461 11.8154ZM11.5814 27.3439H15.0654V16.8675H11.5814V27.3439Z" fill="#B900B9"/>
<path d="M19.5 32.5C22.9478 32.5 26.2544 31.1304 28.6924 28.6924C31.1304 26.2544 32.5 22.9478 32.5 19.5C32.5 16.0522 31.1304 12.7456 28.6924 10.3076C26.2544 7.86964 22.9478 6.5 19.5 6.5C16.0522 6.5 12.7456 7.86964 10.3076 10.3076C7.86964 12.7456 6.5 16.0522 6.5 19.5C6.5 22.9478 7.86964 26.2544 10.3076 28.6924C12.7456 31.1304 16.0522 32.5 19.5 32.5ZM19.5 35.75C10.5251 35.75 3.25 28.4749 3.25 19.5C3.25 10.5251 10.5251 3.25 19.5 3.25C28.4749 3.25 35.75 10.5251 35.75 19.5C35.75 28.4749 28.4749 35.75 19.5 35.75Z" fill="#B900B9"/>
</svg>
