<svg width="33" height="45" viewBox="0 0 33 45" fill="none" xmlns="http://www.w3.org/2000/svg">
<path d="M16.1667 30.75C24.543 30.75 31.3333 24.0902 31.3333 15.875C31.3333 7.65977 24.543 1 16.1667 1C7.79035 1 1 7.65977 1 15.875C1 24.0902 7.79035 30.75 16.1667 30.75Z" stroke="#B900B9" stroke-width="1.5"/>
<path d="M6.09383 28.625L4.71367 33.5614C3.353 38.4319 2.67267 40.8671 3.5805 42.1995C3.899 42.667 4.32583 43.041 4.822 43.2896C6.23467 43.9951 8.41867 42.8795 12.7845 40.6483C14.2362 39.9045 14.9642 39.5348 15.7355 39.454C16.0221 39.4239 16.3112 39.4239 16.5978 39.454C17.3692 39.5348 18.095 39.9066 19.5488 40.6483C23.9147 42.8795 26.0987 43.9951 27.5113 43.2896C28.0075 43.041 28.4343 42.667 28.7528 42.1995C29.6628 40.8671 28.9803 38.4319 27.6197 33.5614L26.2395 28.625" stroke="#B900B9" stroke-width="1.5" stroke-linecap="round"/>
</svg>
