<svg width="90" height="90" viewBox="0 0 90 90" fill="none" xmlns="http://www.w3.org/2000/svg">
<g clip-path="url(#clip0_19_281)">
<path d="M68.9062 0H21.0938C9.44399 0 0 9.44399 0 21.0938V68.9062C0 80.556 9.44399 90 21.0938 90H68.9062C80.556 90 90 80.556 90 68.9062V21.0938C90 9.44399 80.556 0 68.9062 0Z" fill="#242938"/>
<path d="M45.0004 51.6624C48.6229 51.6624 51.5591 48.7258 51.5591 45.1037C51.5591 41.4815 48.6229 38.5449 45.0004 38.5449C41.3783 38.5449 38.4417 41.4815 38.4417 45.1037C38.4417 48.7258 41.3783 51.6624 45.0004 51.6624Z" fill="#00D8FF"/>
<path d="M45.0007 31.7683C53.8066 31.7683 61.9871 33.0318 68.1553 35.1556C75.587 37.7139 80.1562 41.592 80.1562 45.1038C80.1562 48.7632 75.3138 52.8832 67.333 55.5273C61.2995 57.5262 53.3598 58.5697 45.0007 58.5697C36.4303 58.5697 28.3145 57.5902 22.2128 55.5051C14.4932 52.8666 9.84375 48.6936 9.84375 45.1038C9.84375 41.6205 14.2066 37.7723 21.5339 35.2178C27.7249 33.0592 36.1072 31.7683 44.9993 31.7683H45.0007Z" stroke="#00D8FF" stroke-width="3.13277"/>
<path d="M33.3917 38.4743C37.7912 30.8461 42.9722 24.3907 47.8933 20.1087C53.8221 14.9488 59.4647 12.928 62.5064 14.6819C65.6764 16.5101 66.8264 22.7637 65.1301 30.998C63.8487 37.2231 60.7851 44.6221 56.6089 51.8635C52.3272 59.2878 47.4247 65.829 42.5707 70.0717C36.4285 75.4407 30.4903 77.3838 27.3807 75.5905C24.3633 73.8517 23.2094 68.149 24.6572 60.5253C25.8802 54.0837 28.9497 46.1774 33.3903 38.4743H33.3917Z" stroke="#00D8FF" stroke-width="3.13277"/>
<path d="M33.4027 51.883C28.9909 44.2632 25.9871 36.5492 24.7335 30.1473C23.2242 22.4336 24.2912 16.5362 27.3305 14.777C30.4977 12.9432 36.4894 15.0702 42.776 20.6523C47.5291 24.8724 52.4099 31.2206 56.598 38.455C60.892 45.8723 64.1102 53.3869 65.3621 59.7109C66.9463 67.7138 65.6641 73.8286 62.5574 75.6268C59.5431 77.372 54.0267 75.5245 48.1447 70.4627C43.175 66.1863 37.858 59.5787 33.4027 51.883Z" stroke="#00D8FF" stroke-width="3.13277"/>
</g>
<defs>
<clipPath id="clip0_19_281">
<rect width="90" height="90" fill="white"/>
</clipPath>
</defs>
</svg>
