<svg width="100" height="107" viewBox="0 0 100 107" fill="none" xmlns="http://www.w3.org/2000/svg">
<path d="M89.136 6.91675H10.7821C8.54472 6.91675 6.73099 8.85975 6.73099 11.2566V95.1951C6.73099 97.5919 8.54472 99.535 10.7821 99.535H89.136C91.3734 99.535 93.1871 97.5919 93.1871 95.1951V11.2566C93.1871 8.85975 91.3734 6.91675 89.136 6.91675Z" fill="#3178C6"/>
<path fill-rule="evenodd" clip-rule="evenodd" d="M56.891 78.8911V89.0394C58.6122 89.9495 60.4465 90.59 62.3377 90.9414C64.5232 91.3736 66.7416 91.5862 68.964 91.5764C71.1299 91.5875 73.291 91.3535 75.4111 90.8785C77.3146 90.4664 79.1308 89.6815 80.7683 88.5631C82.2885 87.5118 83.5414 86.0729 84.4149 84.3754C85.9792 80.8603 86.1856 76.8259 84.9892 73.1487C84.4844 71.7736 83.7321 70.5182 82.7753 69.4539C81.7483 68.3222 80.5816 67.3462 79.3078 66.553C77.8413 65.6328 76.3175 64.8216 74.7473 64.1251C73.5122 63.576 72.4006 63.0423 71.4125 62.5241C70.5349 62.074 69.6951 61.5439 68.9022 60.9397C68.2812 60.4733 67.7419 59.8933 67.3089 59.2262C66.9349 58.6206 66.7401 57.9081 66.7501 57.182C66.7418 56.5137 66.9156 55.8574 67.2503 55.2933C67.6137 54.7029 68.0985 54.2096 68.6675 53.8511C69.3631 53.4124 70.12 53.0963 70.9092 52.915C71.8782 52.6844 72.8686 52.5734 73.8611 52.5842C74.6958 52.5873 75.5294 52.6514 76.356 52.776C77.2486 52.9053 78.1317 53.101 78.999 53.3615C79.8812 53.6235 80.744 53.9551 81.5804 54.3539C82.3919 54.7414 83.1682 55.2087 83.8993 55.7497V46.2795C82.3774 45.6627 80.7991 45.2192 79.1905 44.9564C77.248 44.6536 75.2867 44.511 73.3238 44.5297C71.1782 44.5173 69.0388 44.7783 66.9508 45.307C65.0634 45.7691 63.2687 46.5903 61.6522 47.7317C60.1506 48.8033 58.9107 50.245 58.0365 51.9359C57.1101 53.8136 56.6517 55.9157 56.7057 58.0387C56.6373 60.8463 57.5005 63.589 59.1419 65.779C61.1557 68.2072 63.695 70.0688 66.537 71.2004C67.8338 71.7738 69.0432 72.335 70.1651 72.8841C71.1773 73.3666 72.1502 73.9386 73.0737 74.5942C73.8186 75.1133 74.4728 75.7683 75.0066 76.5293C75.476 77.2196 75.7251 78.0536 75.7168 78.9076C75.721 79.5475 75.5677 80.1773 75.2722 80.7335C74.9438 81.3311 74.4823 81.8323 73.929 82.1922C73.2366 82.6444 72.4792 82.9708 71.6873 83.1581C70.6558 83.4052 69.6009 83.5217 68.544 83.5054C66.47 83.5014 64.4126 83.1096 62.4643 82.3477C60.4289 81.5609 58.5414 80.3902 56.891 78.8911ZM40.9769 53.6261H53.3277V45.2673H18.8904V53.6261H31.1857V90.852H40.9769V53.6261Z" fill="white"/>
</svg>
