<svg width="33" height="33" viewBox="0 0 33 33" fill="none" xmlns="http://www.w3.org/2000/svg">
<g clip-path="url(#clip0_1_35)">
<path d="M20.9975 18.1638C21.741 18.3977 22.4534 18.7209 23.1192 19.1263L23.0765 19.1015C23.8039 19.4247 24.4323 19.8028 25.0057 20.2469L24.985 20.2318C25.0125 20.3157 25.029 20.4105 25.029 20.5109L25.0277 20.5549V20.5535C25.007 21.1434 24.8764 21.6975 24.655 22.2022L24.666 22.1733C24.3484 22.8099 23.819 23.3008 23.1714 23.562L23.1522 23.5689C22.4821 23.9193 21.741 24.1125 20.9852 24.134H20.9769C19.5342 23.9485 18.1399 23.4903 16.8684 22.7838L16.9275 22.814C15.577 22.2022 14.3489 21.3501 13.303 20.2992L13.3017 20.2978C12.1609 19.1101 11.1266 17.8246 10.2107 16.456L10.146 16.3543C9.23706 15.1661 8.70969 13.7302 8.63353 12.2362L8.63216 12.2183V12.0478C8.65233 11.4096 8.80219 10.7821 9.07262 10.2037C9.34305 9.62525 9.72838 9.10791 10.2052 8.68316L10.2093 8.67903C10.5038 8.38559 10.9005 8.21755 11.3162 8.21016H11.3175C11.4564 8.21428 11.5898 8.22528 11.719 8.24453L11.7012 8.24178C11.8208 8.25966 11.9597 8.27066 12.1027 8.27341H12.1068C12.307 8.25394 12.5078 8.30342 12.676 8.41366L12.6733 8.41228C12.8204 8.57453 12.9332 8.77116 13.0005 8.98703L13.0033 8.99803C13.117 9.2822 13.3516 9.90737 13.7073 10.8735C13.8929 11.3053 14.0744 11.8374 14.2202 12.3847L14.2394 12.4713C14.1402 12.9498 13.8819 13.3807 13.5065 13.6937L13.5024 13.6964C13.012 14.2152 12.7668 14.5452 12.7668 14.6864C12.772 14.8022 12.8107 14.9139 12.8782 15.0082L12.8768 15.0068C13.4086 16.1062 14.1439 17.0948 15.0438 17.9204L15.0507 17.9273C15.9927 18.7759 17.0489 19.4887 18.1884 20.0448L18.2695 20.0805C18.4089 20.1709 18.5697 20.2227 18.7357 20.2304H18.7384C18.952 20.2304 19.3361 19.8857 19.8907 19.1964C20.4452 18.5071 20.8137 18.1624 20.9962 18.1624L20.9975 18.1638ZM16.6704 29.4608H16.7007C18.5061 29.4634 20.2923 29.0892 21.9449 28.3622L21.861 28.3952C25.1005 27.0284 27.6264 24.5025 28.9602 21.3497L28.9932 21.263C29.6669 19.7327 30.0588 17.9479 30.0588 16.0724C30.0588 14.1969 29.6669 12.4122 28.9602 10.7965L28.9932 10.8818C27.6264 7.64228 25.1005 5.11641 21.9477 3.78266L21.861 3.74966C20.3307 3.07591 18.5459 2.68403 16.6704 2.68403C14.7949 2.68403 13.0102 3.07591 11.3945 3.78266L11.4798 3.74966C8.24028 5.11641 5.71441 7.64228 4.38066 10.7952L4.34766 10.8818C3.63871 12.5259 3.27597 14.2984 3.28203 16.0889C3.27759 18.9198 4.18336 21.6771 5.86566 23.9539L5.83953 23.9182L4.15516 28.886L9.31416 27.2443C11.4693 28.6958 14.0101 29.4679 16.6085 29.4608H16.6732H16.6704ZM16.6704 3.23756e-05H16.7158C18.9543 3.23756e-05 21.0828 0.470282 23.0064 1.31866L22.906 1.27878C26.7904 2.92466 29.8195 5.95378 31.4255 9.73366L31.4654 9.83816C32.2739 11.6765 32.7442 13.8202 32.7442 16.0738C32.7442 18.3274 32.2739 20.471 31.4255 22.4112L31.4654 22.3094C29.8195 26.1938 26.7904 29.2229 23.0105 30.8289L22.906 30.8688C21.0814 31.6773 18.9529 32.1475 16.7144 32.1475H16.6677H16.6704H16.5975C13.7664 32.1475 11.1085 31.4037 8.80953 30.1015L8.88791 30.1428L-0.00146484 33L2.89841 24.3664C1.38469 21.8764 0.588151 19.0167 0.59666 16.1027C0.59666 13.8394 1.06691 11.6862 1.91529 9.73503L1.87541 9.83816C3.52128 5.95378 6.55041 2.92466 10.3303 1.31866L10.4348 1.27878C12.3877 0.428067 14.4962 -0.007394 16.6264 3.23756e-05H16.6718H16.6704Z" fill="#B900B9"/>
</g>
<defs>
<clipPath id="clip0_1_35">
<rect width="33" height="33" fill="white"/>
</clipPath>
</defs>
</svg>
